# xmcd
#
# Track frame offsets: 
#        150
#        15840
#        32897
#        49561
#        64233
#        79648
#        94715
#        109097
#        127936
#        146168
#        166025
#        182596
#        197176
#
# Disc length: 2842 seconds
#
# Revision: 3
# Processed by: cddbd v1.5.2PL0 Copyright (c) Steve Scherf et al.
# Submitted via: ExactAudioCopy v1.0b6
#
DISCID=a00b180d
DTITLE=Kim Wilde - Kim Wilde (2009 Remaster)
DYEAR=1981
DGENRE=Synthpop
TTITLE0=Water On Glass
TTITLE1=Our Town
TTITLE2=Everything We Know
TTITLE3=Young Heroes
TTITLE4=Kids In America
TTITLE5=Chequered Love
TTITLE6=2-6-5-8-0
TTITLE7=You'll Never Be So Wrong
TTITLE8=Falling Out
TTITLE9=Tuning In Tuning On
TTITLE10=Shane
TTITLE11=Boys
TTITLE12=Water On Glass (7" Version)
EXTD=
EXTT0=
EXTT1=
EXTT2=
EXTT3=
EXTT4=
EXTT5=
EXTT6=
EXTT7=
EXTT8=
EXTT9=
EXTT10=
EXTT11=
EXTT12=
PLAYORDER=
